<?xml version="1.0" encoding="utf-8"?>
<!-- Generator: Adobe Illustrator 24.2.1, SVG Export Plug-In . SVG Version: 6.00 Build 0)  -->
<svg version="1.1" id="Layer_1" xmlns="http://www.w3.org/2000/svg" xmlns:xlink="http://www.w3.org/1999/xlink" x="0px" y="0px"
	 viewBox="0 0 166.26 174.35" style="enable-background:new 0 0 166.26 174.35;" xml:space="preserve">
<style type="text/css">
	.st0{fill:#F8C117;}
</style>
<path class="st0" d="M84.42,12.44C41.95,12.51,7.46,46.25,7.57,87.62c0.11,41.07,35.01,74.41,77.77,74.29
	c42.35-0.13,76.76-34,76.6-75.42C161.8,45.7,126.9,12.38,84.42,12.44z M94.41,58.73c0,5.14,0.14,10.28-0.06,15.41
	c-0.11,2.8,0.72,3.85,3.77,3.76c6.58-0.21,13.19-0.2,19.77-0.02c4.91,0.14,11.62-2.16,14.24,1.02c2.47,2.99,0.61,9.22,0.93,14.01
	c0.19,2.93-0.93,3.72-3.84,3.67c-10.13-0.15-20.26,0.11-30.38-0.14c-3.73-0.09-4.58,1.1-4.5,4.5c0.23,9.49-0.06,18.99,0.15,28.48
	c0.07,3.31-0.59,4.92-4.43,4.54c-3.34-0.33-6.76-0.28-10.12-0.01c-3.65,0.29-5.05-0.68-4.92-4.55c0.31-9.49-0.05-18.99,0.18-28.48
	c0.08-3.43-0.82-4.57-4.52-4.48c-10.12,0.25-20.26-0.01-30.38,0.14c-2.94,0.04-4.01-0.8-3.83-3.69c0.23-3.72,0.25-7.48,0-11.2
	c-0.21-3.11,0.97-3.97,4.09-3.91c10.13,0.17,20.26-0.08,30.38,0.14c3.48,0.07,4.31-1.07,4.25-4.25c-0.19-9.8,0.01-19.61-0.12-29.42
	c-0.03-2.68,0.54-4.02,3.68-3.83c4,0.24,8.05,0.24,12.05,0c3.17-0.19,3.75,1.18,3.66,3.85C94.29,49.08,94.41,53.91,94.41,58.73z"/>
</svg>
