<?xml version="1.0" encoding="utf-8"?>
<!-- Generator: Adobe Illustrator 24.2.1, SVG Export Plug-In . SVG Version: 6.00 Build 0)  -->
<svg version="1.1" id="Layer_1" xmlns="http://www.w3.org/2000/svg" xmlns:xlink="http://www.w3.org/1999/xlink" x="0px" y="0px"
	 viewBox="0 0 166.26 174.35" style="enable-background:new 0 0 166.26 174.35;" xml:space="preserve">
<style type="text/css">
	.st0{fill:#BDD5EF;}
	.st1{fill:#6894CD;}
</style>
<g>
	<path class="st0" d="M64.16,87.72c0,20.22,0,40.45,0,60.67c0,4.41-2.34,6.78-6.76,6.79c-7.2,0.02-14.4,0.05-21.6-0.01
		c-10.65-0.08-19.05-7.19-21.19-17.06c-0.34-1.56-0.48-3.2-0.48-4.8C14.1,103.01,14.1,72.7,14.1,42.4
		c0-10.73,7.18-19.24,16.87-21.33c1.62-0.35,3.31-0.54,4.97-0.55c7.08-0.06,14.16,0.04,21.24-0.05c4.04-0.05,7.06,2.41,7.03,6.94
		C64.08,47.51,64.16,67.62,64.16,87.72z"/>
	<path class="st1" d="M75.68,87.81c0-22.86,0-45.73,0-68.59c0-4.56,3.82-7.46,7.8-5.92c2.2,0.85,3.42,2.55,3.7,4.89
		c0.06,0.47,0.02,0.96,0.02,1.44c0,45.49-0.01,90.98,0.02,136.46c0,2.79-0.87,4.97-3.46,6.16c-3.66,1.69-7.84-0.91-8.07-4.96
		c-0.05-0.78-0.01-1.56-0.01-2.34C75.68,132.58,75.68,110.19,75.68,87.81z"/>
	<path class="st1" d="M148.74,128.97c0.13,4.81,0.09,9.6-2.11,14.07c-1.04,2.12-2.38,4.02-4,5.73c-2.38,2.5-5.97,2.64-8.36,0.36
		c-2.31-2.21-2.42-5.81-0.06-8.22c2.27-2.32,2.99-5.12,3-8.21c0.01-3.18-0.02-6.36,0.01-9.54c0.03-3.5,2.52-6.11,5.73-6.07
		c3.24,0.04,5.71,2.64,5.78,6.12C148.77,125.13,148.74,127.05,148.74,128.97z"/>
	<path class="st1" d="M148.74,46.82c0,1.86,0.02,3.72-0.01,5.58c-0.06,3.58-2.58,6.23-5.88,6.21c-3.21-0.02-5.58-2.64-5.65-6.17
		c-0.08-3.89,0.2-7.79-0.16-11.68c-0.21-2.24-1.13-4.12-2.65-5.76c-2.46-2.66-2.46-6.24-0.03-8.49c2.51-2.33,6.07-1.99,8.6,0.76
		c3.88,4.21,5.71,9.21,5.78,14.89C148.76,43.7,148.74,45.26,148.74,46.82z"/>
	<path class="st1" d="M137.22,87.78c0-3.78-0.02-7.56,0.01-11.34c0.03-3.54,2.48-6.1,5.73-6.05c3.23,0.05,5.76,2.67,5.77,6.12
		c0.03,7.56,0.03,15.12,0,22.68c-0.02,3.44-2.6,6.16-5.74,6.16c-3.33,0.01-5.75-2.59-5.77-6.23
		C137.2,95.33,137.22,91.55,137.22,87.78z"/>
	<path class="st1" d="M110.27,143.61c1.86,0,3.71-0.02,5.57,0c3.34,0.05,5.83,2.35,5.94,5.46c0.12,3.22-2.26,5.91-5.61,6.03
		c-3.95,0.13-7.91,0.14-11.85,0c-3.33-0.12-5.71-2.85-5.58-6.06c0.13-3.17,2.54-5.37,5.96-5.42
		C106.56,143.59,108.42,143.61,110.27,143.61z"/>
	<path class="st1" d="M110.1,32.06c-1.8,0-3.59,0.02-5.39,0c-3.34-0.05-5.85-2.34-5.97-5.43c-0.12-3.24,2.22-5.93,5.57-6.05
		c3.95-0.14,7.9-0.13,11.85,0c3.34,0.11,5.73,2.81,5.62,6.02c-0.11,3.11-2.6,5.41-5.94,5.46C113.93,32.09,112.01,32.06,110.1,32.06z
		"/>
</g>
</svg>
