<?xml version="1.0" encoding="utf-8"?>
<!-- Generator: Adobe Illustrator 24.2.1, SVG Export Plug-In . SVG Version: 6.00 Build 0)  -->
<svg version="1.1" id="Layer_1" xmlns="http://www.w3.org/2000/svg" xmlns:xlink="http://www.w3.org/1999/xlink" x="0px" y="0px"
	 viewBox="0 0 166.26 174.35" style="enable-background:new 0 0 166.26 174.35;" xml:space="preserve">
<style type="text/css">
	.st0{fill:#061A37;}
	.st1{fill:#223C78;}
	.st2{fill:#061A36;}
	.st3{fill:#FCFDFD;}
	.st4{fill:#D9F0F8;}
	.st5{fill:#EBF7FC;}
	.st6{fill:#00A963;}
	.st7{fill:#59B253;}
</style>
<g>
	<path class="st0" d="M140.73,60.68c-0.97,1.6-2.25,2.6-4.26,2.11c-1.68-0.41-2.53-1.55-2.54-3.39c-0.01-5.17,0-10.34,0-15.51
		c0-3.98-2.34-6.32-6.32-6.32c-5.21,0-10.42,0.02-15.63-0.01c-2.59-0.01-4.14-2.47-3.1-4.85c0.55-1.27,1.57-1.93,2.93-1.93
		c5.7-0.01,11.4-0.1,17.1,0.04c5.6,0.13,10.37,4.39,11.58,10.04c0.04,0.2-0.07,0.47,0.24,0.56
		C140.73,47.84,140.73,54.26,140.73,60.68z"/>
	<path class="st1" d="M35.12,146.81c-0.22-0.4-0.66-0.31-0.99-0.4c-5.53-1.47-9.36-6.27-9.42-11.98c-0.06-5.43-0.02-10.87-0.01-16.3
		c0.01-2.09,1.36-3.45,3.36-3.48c2.04-0.02,3.43,1.37,3.43,3.52c0.01,5.21,0,10.41,0.01,15.62c0,3.83,2.38,6.22,6.2,6.22
		c5.02,0.01,10.04,0,15.06,0c2.42,0,3.57,0.76,4.01,2.63c0.41,1.76-0.38,3.14-2.37,4.16C47.96,146.81,41.54,146.81,35.12,146.81z"/>
	<path class="st2" d="M110.81,146.81c-1.58-0.94-2.56-2.2-2.15-4.15c0.36-1.73,1.55-2.64,3.43-2.65c5.17-0.01,10.34,0,15.51,0
		c3.98,0,6.33-2.35,6.33-6.32c0-4.98,0-9.96,0-14.95c0-2.42,0.76-3.57,2.64-4.01c1.75-0.41,3.15,0.39,4.16,2.38
		c0,6.42,0,12.84,0,19.26c-0.4,0.21-0.31,0.65-0.4,0.98c-1.37,4.78-4.47,7.79-9.25,9.11c-0.41,0.11-0.91-0.11-1.23,0.33
		C123.51,146.81,117.16,146.81,110.81,146.81z"/>
	<path class="st3" d="M129.85,146.81c0.31-0.44,0.82-0.22,1.23-0.33c4.78-1.32,7.88-4.33,9.25-9.11c0.09-0.33,0-0.77,0.4-0.98
		c0,3.29-0.01,6.57,0.01,9.86c0,0.49-0.09,0.59-0.58,0.58C136.73,146.79,133.29,146.81,129.85,146.81z"/>
	<path class="st4" d="M122.32,70.12c0.02,5.08,0.04,10.16,0.05,15.24c-13.22,0-26.45,0.01-39.67,0.01c0-12.15,0.01-24.3,0.01-36.46
		c6.15,0.01,12.29,0.03,18.44,0.04c-1.93,0.92-2.74,2.42-2.3,4.25c0.41,1.68,1.65,2.5,3.79,2.5c3.25,0,6.5,0,9.74,0
		c2.18,0,3.18,1,3.18,3.18c0.01,3.4-0.01,6.8,0.01,10.2c0.01,1.71,0.88,2.87,2.39,3.3C119.8,72.9,121.39,72.08,122.32,70.12z"/>
	<path class="st5" d="M82.71,48.9c0,12.15-0.01,24.3-0.01,36.46c0,0,0.02,0.06,0.02,0.06c-9.95-0.01-19.9-0.02-29.84-0.04
		c-3.28,0-6.56-0.02-9.83-0.04c0-4.51,0-9.02,0.01-13.53c0-0.39-0.15-0.84,0.22-1.17c1.21,1.64,2.63,2.21,4.26,1.69
		c1.63-0.51,2.31-1.63,2.31-3.81c0-3.2,0-6.41,0-9.61c0-2.25,0.99-3.23,3.23-3.23c3.39,0,6.78,0.01,10.17-0.01
		c1.86-0.01,3.15-1.14,3.36-2.85c0.2-1.63-0.45-2.85-1.81-3.71c0.33-0.37,0.78-0.22,1.17-0.22C71.56,48.9,77.13,48.9,82.71,48.9z"/>
	<path class="st4" d="M101.16,128.17c-6.15,0.02-12.29,0.03-18.44,0.05c0-12-0.01-24-0.01-36c9.87-0.01,19.74-0.02,29.61-0.03
		c3.35,0,6.71,0.02,10.06,0.04c-0.02,4.93-0.04,9.85-0.05,14.78c-0.92-1.93-2.42-2.75-4.24-2.3c-1.68,0.41-2.5,1.65-2.5,3.79
		c0,3.25,0,6.5,0,9.75c0,2.18-1,3.18-3.18,3.18c-3.4,0.01-6.8-0.01-10.2,0.01c-1.71,0.01-2.88,0.88-3.3,2.39
		C98.37,125.65,99.2,127.24,101.16,128.17z"/>
	<path class="st5" d="M82.71,92.21c0,12,0.01,24,0.01,36c-5.58,0-11.16,0.01-16.74,0c-0.4,0-0.84,0.15-1.17-0.22
		c1.64-1.2,2.2-2.63,1.69-4.26c-0.51-1.62-1.64-2.31-3.81-2.31c-3.2,0-6.41,0-9.61,0c-2.24,0-3.23-0.99-3.23-3.24
		c0-3.39,0.01-6.78-0.01-10.17c-0.01-1.86-1.14-3.16-2.85-3.36c-1.63-0.2-2.85,0.45-3.71,1.82c-0.37-0.33-0.22-0.77-0.22-1.17
		c-0.01-4.36-0.01-8.72-0.01-13.07c5.39-0.01,10.78-0.03,16.16-0.04c7.84-0.01,15.67-0.02,23.51-0.03L82.71,92.21z"/>
	<path class="st6" d="M122.38,92.22c-3.35-0.01-6.71-0.04-10.06-0.04c-9.87,0-19.74,0.02-29.61,0.03c0,0,0.02-0.06,0.02-0.06
		c0-2.24,0-4.49,0-6.73c0,0-0.02-0.06-0.02-0.06c13.22,0,26.45-0.01,39.67-0.01c4.83,0.01,9.66,0.02,14.48,0.04
		c2.24,0.01,3.63,1.31,3.63,3.4c0,2.09-1.39,3.39-3.63,3.4C132.03,92.2,127.21,92.21,122.38,92.22z"/>
	<path class="st7" d="M82.72,85.42c0,2.24,0,4.49,0,6.73c-7.84,0.01-15.67,0.02-23.51,0.03c-5.39,0.01-10.78,0.02-16.16,0.04
		c-4.87-0.01-9.74-0.01-14.6-0.04c-2.58-0.02-4.14-2.27-3.27-4.67c0.5-1.38,1.6-2.12,3.27-2.12c4.64-0.01,9.28,0,13.93-0.01
		c0.23,0,0.45-0.02,0.68-0.04c3.28,0.01,6.56,0.03,9.83,0.04C62.83,85.4,72.77,85.41,82.72,85.42z"/>
	<path class="st1" d="M24.69,50.42c0.15-2.67-0.28-5.96,0.21-9.22c0.85-5.6,5.83-10.2,11.51-10.36c5.73-0.16,11.48-0.07,17.21-0.04
		c1.9,0.01,3.22,1.47,3.23,3.38c0.01,1.95-1.34,3.38-3.33,3.4c-5.25,0.03-10.5,0.01-15.74,0.01c-3.92,0-6.29,2.35-6.29,6.25
		c0,5.21,0.01,10.42-0.01,15.63c-0.01,2.54-2.19,4.08-4.58,3.28c-1.4-0.47-2.2-1.59-2.21-3.2C24.68,56.69,24.69,53.86,24.69,50.42z"
		/>
	<path class="st0" d="M122.32,70.12c-0.93,1.96-2.52,2.79-4.35,2.27c-1.51-0.43-2.38-1.6-2.39-3.3c-0.02-3.4,0-6.8-0.01-10.2
		c0-2.18-1-3.18-3.18-3.18c-3.25-0.01-6.5,0-9.74,0c-2.14,0-3.38-0.82-3.79-2.5c-0.44-1.82,0.37-3.33,2.3-4.25
		c4.11-0.01,8.23-0.11,12.34-0.01c4.66,0.12,8.71,4.17,8.84,8.83C122.44,61.88,122.33,66,122.32,70.12z"/>
	<path class="st0" d="M101.16,128.17c-1.96-0.93-2.79-2.52-2.27-4.35c0.43-1.51,1.6-2.38,3.3-2.39c3.4-0.02,6.8,0,10.2-0.01
		c2.18,0,3.18-1,3.18-3.18c0.01-3.25,0-6.5,0-9.75c0-2.14,0.82-3.38,2.5-3.79c1.83-0.44,3.33,0.37,4.24,2.3
		c0.01,4.11,0.12,8.23,0.01,12.34c-0.13,4.66-4.17,8.71-8.83,8.83C109.39,128.29,105.27,128.18,101.16,128.17z"/>
	<path class="st1" d="M43.28,106.47c0.87-1.36,2.08-2.01,3.71-1.82c1.71,0.2,2.84,1.5,2.85,3.36c0.02,3.39,0,6.78,0.01,10.17
		c0,2.25,0.99,3.23,3.23,3.24c3.2,0,6.41,0,9.61,0c2.16,0,3.3,0.69,3.81,2.31c0.51,1.63-0.05,3.06-1.69,4.26
		c-0.77,0.21-1.56,0.24-2.35,0.23c-3.25-0.01-6.49,0.01-9.74-0.01c-5.54-0.03-9.64-4.13-9.66-9.66c-0.02-3.43,0.01-6.87-0.01-10.3
		C43.04,107.64,43.17,107.06,43.28,106.47z"/>
	<path class="st1" d="M64.8,49.13c1.36,0.87,2.01,2.08,1.81,3.71c-0.21,1.71-1.51,2.84-3.36,2.85c-3.39,0.02-6.78,0-10.17,0.01
		c-2.25,0-3.23,0.99-3.23,3.23c0,3.2,0,6.4,0,9.61c0,2.18-0.68,3.3-2.31,3.81c-1.63,0.51-3.06-0.05-4.26-1.69
		c-0.18-0.74-0.24-1.48-0.23-2.24c0.02-3.28-0.01-6.57,0.01-9.85c0.03-5.54,4.13-9.63,9.66-9.66c3.43-0.02,6.87,0.01,10.3-0.01
		C63.63,48.89,64.21,49.02,64.8,49.13z"/>
</g>
</svg>
