<?xml version="1.0" encoding="utf-8"?>
<!-- Generator: Adobe Illustrator 24.2.1, SVG Export Plug-In . SVG Version: 6.00 Build 0)  -->
<svg version="1.1" id="Layer_1" xmlns="http://www.w3.org/2000/svg" xmlns:xlink="http://www.w3.org/1999/xlink" x="0px" y="0px"
	 viewBox="0 0 193.52 132.11" style="enable-background:new 0 0 193.52 132.11;" xml:space="preserve">
<style type="text/css">
	.st0{fill:#4BB7D6;}
	.st1{fill:#FDFEFD;}
</style>
<g>
	<path class="st0" d="M96.76,126.31c-19.97,0-39.94,0.07-59.9-0.04c-8.06-0.04-15.28-3.19-21.42-9.46
		c-6.51-6.65-10.06-15.06-10.28-25.24C5,84.52,6.71,78.01,10.14,72.22c5.26-8.88,12.55-14.04,21.55-15.89
		c1.49-0.31,1.54-0.28,1.49-2.05c-0.18-5.75,0.5-11.35,2.11-16.78c2.75-9.25,7.49-16.79,14.16-22.6C58.03,7.43,67.7,4.23,78.3,5.15
		c11.11,0.96,20.5,6.31,28.15,15.88c0.95,1.19,1.84,2.47,2.65,3.8c0.41,0.67,0.79,0.85,1.45,0.71c6.37-1.39,12.7-1.14,18.89,1.1
		c12.4,4.49,21.15,13.62,25.36,28.36c0.23,0.8,0.65,0.73,1.14,0.73c3.83,0,7.59,0.6,11.21,2.09c8.97,3.69,15.76,10.37,19.29,20.91
		c3.95,11.78,2.49,22.94-4.07,32.9c-6.46,9.82-15.29,14.54-25.71,14.63C136.7,126.44,116.73,126.31,96.76,126.31
		C96.76,126.31,96.76,126.31,96.76,126.31z M73,78.95c0.53,0,0.83,0,1.13,0c3,0,6,0.03,8.99-0.01c0.7-0.01,0.85,0.22,0.85,1.03
		c-0.03,9.27,0,18.54-0.04,27.8c0,1.02,0.24,1.27,1.09,1.27c6.71-0.04,13.41-0.04,20.12,0c0.76,0,0.83-0.31,0.83-1.07
		c-0.02-9.27,0-18.54-0.03-27.8c0-0.92,0.16-1.26,1.01-1.24c2.9,0.07,5.81,0.03,8.71,0.04c0.35,0,0.71,0,1.24,0
		c-0.34-0.51-0.54-0.82-0.76-1.12c-1.89-2.65-3.79-5.29-5.68-7.94c-4.94-6.91-9.87-13.83-14.81-20.74c-0.7-0.98-0.71-0.96-1.44,0.06
		c-4.7,6.58-9.41,13.15-14.1,19.73C77.79,72.2,75.48,75.47,73,78.95z"/>
	<path class="st1" d="M73,78.95c2.47-3.48,4.79-6.75,7.12-10.01c4.7-6.58,9.4-13.15,14.1-19.73c0.73-1.02,0.74-1.04,1.44-0.06
		c4.94,6.91,9.87,13.83,14.81,20.74c1.89,2.65,3.79,5.29,5.68,7.94c0.21,0.3,0.41,0.61,0.76,1.12c-0.53,0-0.89,0-1.24,0
		c-2.91,0-5.81,0.03-8.71-0.04c-0.85-0.02-1.02,0.32-1.01,1.24c0.03,9.27,0.01,18.54,0.03,27.8c0,0.76-0.07,1.07-0.83,1.07
		c-6.71-0.04-13.41-0.04-20.12,0c-0.85,0.01-1.09-0.25-1.09-1.27c0.03-9.27,0.01-18.54,0.04-27.8c0-0.82-0.15-1.04-0.85-1.03
		c-3,0.05-6,0.02-8.99,0.01C73.83,78.95,73.53,78.95,73,78.95z"/>
</g>
</svg>
