<?xml version="1.0" encoding="utf-8"?>
<!-- Generator: Adobe Illustrator 27.0.0, SVG Export Plug-In . SVG Version: 6.00 Build 0)  -->
<svg version="1.1" id="Layer_1" xmlns="http://www.w3.org/2000/svg" xmlns:xlink="http://www.w3.org/1999/xlink" x="0px" y="0px"
	 viewBox="0 0 189.31 180.22" style="enable-background:new 0 0 189.31 180.22;" xml:space="preserve">
<style type="text/css">
	.st0{fill:#66CC66;}
	.st1{fill:#F9C110;}
	.st2{fill:#FFFFFF;}
</style>
<g>
	<path class="st0" d="M27.02,147.35c0.89,0,1.38,0,1.87,0c12.49,0,24.98-0.02,37.48,0.03c1.41,0.01,1.95-0.26,2.15-1.78
		c2.2-16.46,16.64-30.08,33.71-31.93c21.69-2.35,40.23,11.47,43.51,32.48c0.15,0.99,0.54,1.22,1.48,1.22
		c11.58-0.02,23.16-0.04,34.74,0.01c1.31,0.01,1.27-0.63,1.26-1.51c-0.02-5.73-0.01-11.46-0.01-17.2c0-27.09-0.02-54.17,0.04-81.26
		c0-1.72-0.44-2.16-2.22-2.15c-12.3,0.08-24.59,0.06-36.89,0.01c-1.32-0.01-2.11,0.36-2.81,1.46c-1.79,2.78-3.82,5.41-5.56,8.21
		c-0.86,1.38-1.86,1.74-3.45,1.74c-32.99-0.05-65.97-0.02-98.96-0.08c-1.91,0-2.46,0.36-2.45,2.31c0.08,24.25,0.01,48.5,0.09,72.76
		C31.02,137.14,30.87,142.49,27.02,147.35z"/>
	<path class="st1" d="M16.76,146.65c4.88-1.62,7.75-5.73,7.76-10.83c0.01-21.97,0-43.95,0-65.92c0-6.01,0.08-12.02-0.05-18.03
		c-0.04-1.8,0.58-2.12,2.28-2.12c34.08,0.04,68.15,0.02,102.23,0.07c1.52,0,2.47-0.37,3.29-1.67c1.71-2.72,3.7-5.28,5.41-8
		c0.81-1.29,1.77-1.71,3.28-1.66c3.36,0.11,6.72-0.01,10.09,0.06c1.21,0.03,1.59-0.35,1.53-1.5c-0.09-1.56-0.08-3.13,0-4.69
		c0.06-1.1-0.4-1.47-1.47-1.35c-0.32,0.04-0.65,0.01-0.97,0.01c-43.65,0-87.3,0.01-130.94-0.04c-1.84,0-2.5,0.28-2.5,2.29
		c0.08,37.13,0.06,74.25,0.06,111.38C16.76,145.25,16.76,145.87,16.76,146.65z"/>
	<path class="st0" d="M9.71,146.65c0-0.9,0-1.66,0-2.41c0-39.64,0.01-79.28-0.04-118.91c0-1.72,0.45-2.13,2.21-2.13
		c49.1,0.05,98.21,0.05,147.31,0c1.82,0,2.24,0.49,2.18,2.16c-0.13,3.82,0,7.65-0.07,11.48c-0.02,1.12,0.24,1.57,1.49,1.49
		c1.61-0.11,3.24-0.11,4.85,0c1.26,0.09,1.49-0.38,1.48-1.49c-0.05-6.46-0.07-12.92,0.01-19.38c0.02-1.38-0.31-1.79-1.8-1.77
		c-6.61,0.09-13.21,0.04-19.82,0.04c-31.74,0-63.48-0.01-95.23,0.03c-1.38,0-2.22-0.34-2.97-1.51c-1.88-2.93-3.96-5.73-5.87-8.64
		c-0.6-0.91-1.27-1.2-2.35-1.2C28.67,4.43,16.23,4.45,3.79,4.38c-1.55-0.01-1.9,0.41-1.9,1.86c0.05,25.71,0.03,51.43,0.03,77.14
		c0,17.5-0.01,35,0.01,52.5C1.94,140.96,4.88,145.08,9.71,146.65z"/>
	<path class="st1" d="M108.83,81.35c-27.46,0.04-49.75,21.86-49.68,48.6c0.07,26.55,22.64,48.11,50.28,48.03
		c27.38-0.08,49.62-21.98,49.52-48.76C158.86,102.85,136.3,81.31,108.83,81.35z M115.3,111.28c0,3.32,0.09,6.64-0.04,9.96
		c-0.07,1.81,0.46,2.49,2.44,2.43c4.26-0.13,8.52-0.13,12.78-0.01c3.18,0.09,7.51-1.4,9.2,0.66c1.59,1.93,0.4,5.96,0.6,9.06
		c0.12,1.89-0.6,2.4-2.49,2.38c-6.55-0.1-13.1,0.07-19.64-0.09c-2.41-0.06-2.96,0.71-2.91,2.91c0.15,6.14-0.04,12.28,0.1,18.41
		c0.05,2.14-0.38,3.18-2.87,2.94c-2.16-0.21-4.37-0.18-6.54-0.01c-2.36,0.19-3.26-0.44-3.18-2.94c0.2-6.13-0.03-12.28,0.12-18.41
		c0.05-2.22-0.53-2.96-2.92-2.9c-6.54,0.16-13.1,0-19.64,0.09c-1.9,0.03-2.59-0.52-2.48-2.39c0.15-2.41,0.16-4.84,0-7.24
		c-0.14-2.01,0.63-2.56,2.65-2.53c6.55,0.11,13.1-0.05,19.64,0.09c2.25,0.05,2.79-0.69,2.75-2.75c-0.12-6.34,0-12.68-0.08-19.02
		c-0.02-1.73,0.35-2.6,2.38-2.48c2.59,0.15,5.2,0.15,7.79,0c2.05-0.12,2.43,0.77,2.37,2.49C115.22,105.03,115.3,108.16,115.3,111.28
		z"/>
	<path class="st2" d="M115.11,111.71c0-3.05-0.08-6.09,0.03-9.14c0.06-1.68-0.31-2.55-2.31-2.43c-2.53,0.15-5.08,0.15-7.61,0
		c-1.99-0.12-2.35,0.72-2.32,2.42c0.08,6.19-0.05,12.38,0.08,18.57c0.04,2.01-0.48,2.73-2.68,2.69c-6.39-0.14-12.79,0.02-19.18-0.09
		c-1.97-0.03-2.72,0.5-2.58,2.47c0.16,2.35,0.15,4.72,0,7.07c-0.11,1.82,0.56,2.36,2.42,2.33c6.39-0.1,12.79,0.07,19.18-0.09
		c2.34-0.06,2.9,0.66,2.85,2.83c-0.15,5.99,0.08,11.99-0.11,17.98c-0.08,2.44,0.8,3.05,3.11,2.87c2.12-0.17,4.28-0.2,6.39,0.01
		c2.43,0.24,2.84-0.78,2.8-2.87c-0.13-5.99,0.05-11.99-0.1-17.98c-0.05-2.15,0.49-2.9,2.84-2.84c6.39,0.16,12.78,0,19.18,0.09
		c1.84,0.03,2.55-0.47,2.43-2.32c-0.2-3.02,0.97-6.95-0.58-8.84c-1.65-2.01-5.88-0.56-8.99-0.64c-4.16-0.12-8.32-0.12-12.48,0.01
		c-1.93,0.06-2.45-0.6-2.38-2.37C115.19,118.19,115.11,114.95,115.11,111.71z"/>
</g>
</svg>
