<?xml version="1.0" encoding="utf-8"?>
<!-- Generator: Adobe Illustrator 27.0.0, SVG Export Plug-In . SVG Version: 6.00 Build 0)  -->
<svg version="1.1" id="Layer_1" xmlns="http://www.w3.org/2000/svg" xmlns:xlink="http://www.w3.org/1999/xlink" x="0px" y="0px"
	 viewBox="0 0 189.31 197.04" style="enable-background:new 0 0 189.31 197.04;" xml:space="preserve">
<style type="text/css">
	.st0{fill:#045485;}
	.st1{fill:#025385;}
	.st2{fill:#B9E6FD;}
	.st3{fill:#60B3FE;}
	.st4{fill:#FCFDFD;}
	.st5{fill:#FCC451;}
</style>
<g>
	<path class="st0" d="M186.7,39.4c-0.8,0.37-1.18,1.3-2.16,1.49c-1.64,0.31-2.84-0.36-3.56-2.23c-2.3-5.95-4.57-11.91-6.85-17.87
		c-0.21-0.55-0.45-1.08-0.8-1.91C170.76,25,168,30.7,164.8,36.18c-21.77,37.24-51.89,65.21-91.69,82.33
		c-16.49,7.1-33.75,11.43-51.59,13.5c-4.93,0.57-9.87,0.93-14.82,1.23c-2.09,0.13-3.5-0.85-3.67-2.56c-0.18-1.78,1.02-3,3.29-3.13
		c9.55-0.55,19.04-1.57,28.44-3.41c28.64-5.59,54.51-17.28,77.38-35.4c22.68-17.97,40.58-39.87,53.19-65.99
		c1.09-2.25,2.03-4.56,3.09-6.96c-1.15-0.1-1.96,0.48-2.81,0.8c-6.02,2.28-12.03,4.6-18.04,6.91c-0.22,0.09-0.45,0.16-0.68,0.23
		c-1.76,0.58-3.33,0-3.92-1.45c-0.64-1.58,0.07-3.16,1.88-3.87c3.72-1.47,7.46-2.86,11.19-4.3c5.07-1.95,10.12-3.91,15.2-5.84
		c2.81-1.07,4.05-0.51,5.13,2.31c3.21,8.35,6.39,16.71,9.59,25.06c0.21,0.55,0.48,1.07,0.73,1.6C186.7,37.96,186.7,38.68,186.7,39.4
		z"/>
	<path class="st1" d="M93.83,187.97c-28.82,0-57.64,0-86.46,0c-3.67,0-4.36-0.69-4.36-4.4c0-11.6,0-23.2,0-34.8
		c0-5.91,3.44-9.38,9.32-9.39c7.17-0.01,14.35-0.02,21.52,0c5.73,0.01,9.23,3.54,9.24,9.32c0.02,10.52,0.03,21.05-0.03,31.57
		c-0.01,1.48,0.21,2.22,1.9,1.98c1.69-0.24,3.91,0.72,4.99-0.38c0.99-1.01,0.28-3.19,0.28-4.85c0.02-12.2,0.01-24.39,0.01-36.59
		c0-6.3,3.32-9.63,9.59-9.64c7.06-0.01,14.11-0.01,21.17,0c5.8,0.01,9.23,3.45,9.24,9.26c0.01,13.45,0.03,26.91-0.03,40.36
		c-0.01,1.53,0.43,1.98,1.9,1.83c1.24-0.12,2.52-0.12,3.76,0c1.29,0.12,1.57-0.36,1.56-1.59c-0.04-14.29-0.03-28.58-0.03-42.87
		c0-6.4-0.01-12.8,0-19.19c0.01-5.73,3.56-9.26,9.29-9.27c7.23-0.01,14.47-0.01,21.7,0c5.49,0.01,9.1,3.59,9.11,9.08
		c0.01,20.63,0.02,41.26-0.03,61.88c0,1.52,0.27,2.18,1.92,1.96c1.12-0.15,2.29-0.16,3.4,0c1.69,0.24,1.91-0.5,1.91-1.99
		c-0.04-34.2,0.05-68.4-0.11-102.6c-0.03-6.16,4.21-10.16,10.01-9.94c6.81,0.25,13.63,0.06,20.45,0.06c6.2,0,9.65,3.42,9.66,9.65
		c0.02,20.15,0.01,40.3,0.01,60.45c0,15.25,0,30.49,0,45.74c0,1.01,0.11,2.04-0.45,2.97c-0.76,1.25-1.96,1.39-3.27,1.38
		c-11.54-0.02-23.08-0.01-34.62-0.01C128.87,187.97,111.35,187.97,93.83,187.97z M150.41,128.54c0,17.33,0.01,34.67-0.03,52
		c0,1.26,0.21,1.75,1.64,1.74c8.49-0.07,16.97-0.06,25.46-0.01c1.26,0.01,1.6-0.36,1.6-1.61c-0.03-34.43-0.02-68.86-0.03-103.29
		c0-2.92-0.99-3.86-3.9-3.87c-6.87-0.01-13.75,0-20.62,0c-3.32,0-4.12,0.79-4.12,4.11C150.4,94.58,150.41,111.56,150.41,128.54z
		 M103.1,149.36c0,10.28,0.03,20.56-0.03,30.84c-0.01,1.56,0.28,2.15,2.02,2.13c8.25-0.1,16.49-0.1,24.74,0
		c1.74,0.02,2.02-0.58,2.01-2.13c-0.05-20.5-0.03-41-0.03-61.49c0-2.78-0.85-3.68-3.59-3.69c-7.17-0.02-14.34-0.02-21.51,0
		c-2.71,0.01-3.61,0.95-3.61,3.69C103.1,128.92,103.1,139.14,103.1,149.36z M55.83,160.34c0,6.75,0.03,13.5-0.03,20.25
		c-0.01,1.3,0.28,1.74,1.67,1.73c8.54-0.07,17.08-0.06,25.62-0.01c1.25,0.01,1.61-0.35,1.6-1.6c-0.04-13.44-0.02-26.87-0.03-40.31
		c0-3.02-1.05-4.03-4.13-4.03c-6.87-0.01-13.74-0.01-20.6,0c-3.03,0-4.09,1.06-4.09,4.09C55.83,147.09,55.83,153.71,55.83,160.34z
		 M8.75,164.44c0,5.44,0.03,10.88-0.02,16.31c-0.01,1.15,0.27,1.51,1.47,1.51c8.54-0.05,17.09-0.05,25.63,0
		c1.27,0.01,1.59-0.38,1.58-1.61c-0.05-10.64-0.02-21.27-0.03-31.91c0-2.63-0.97-3.62-3.54-3.63c-7.17-0.02-14.34-0.02-21.51,0
		c-2.62,0.01-3.57,0.97-3.58,3.56C8.74,153.92,8.75,159.18,8.75,164.44z"/>
	<path class="st2" d="M150.41,128.54c0-16.98,0-33.95,0-50.93c0-3.31,0.8-4.1,4.12-4.11c6.87,0,13.75,0,20.62,0
		c2.91,0,3.9,0.95,3.9,3.87c0.01,34.43,0,68.86,0.03,103.29c0,1.25-0.35,1.61-1.6,1.61c-8.49-0.05-16.98-0.06-25.46,0.01
		c-1.42,0.01-1.64-0.47-1.64-1.74C150.42,163.2,150.41,145.87,150.41,128.54z"/>
	<path class="st3" d="M103.1,149.36c0-10.22,0-20.44,0-30.66c0-2.73,0.9-3.68,3.61-3.69c7.17-0.02,14.34-0.02,21.51,0
		c2.74,0.01,3.59,0.91,3.59,3.69c0,20.5-0.01,41,0.03,61.49c0,1.55-0.27,2.15-2.01,2.13c-8.25-0.1-16.49-0.1-24.74,0
		c-1.74,0.02-2.03-0.57-2.02-2.13C103.13,169.92,103.1,159.64,103.1,149.36z"/>
	<path class="st4" d="M55.83,160.34c0-6.63-0.01-13.26,0-19.89c0-3.03,1.06-4.08,4.09-4.09c6.87-0.01,13.74-0.01,20.6,0
		c3.08,0,4.13,1.01,4.13,4.03c0.01,13.44-0.01,26.87,0.03,40.31c0,1.25-0.35,1.61-1.6,1.6c-8.54-0.05-17.08-0.06-25.62,0.01
		c-1.39,0.01-1.68-0.43-1.67-1.73C55.87,173.84,55.83,167.09,55.83,160.34z"/>
	<path class="st5" d="M8.75,164.44c0-5.26-0.01-10.52,0-15.77c0.01-2.59,0.95-3.55,3.58-3.56c7.17-0.02,14.34-0.02,21.51,0
		c2.57,0.01,3.54,1,3.54,3.63c0.01,10.64-0.01,21.27,0.03,31.91c0.01,1.24-0.31,1.62-1.58,1.61c-8.54-0.05-17.09-0.05-25.63,0
		c-1.2,0.01-1.48-0.36-1.47-1.51C8.78,175.31,8.75,169.87,8.75,164.44z"/>
</g>
</svg>
