<?xml version="1.0" encoding="utf-8"?>
<!-- Generator: Adobe Illustrator 27.0.0, SVG Export Plug-In . SVG Version: 6.00 Build 0)  -->
<svg version="1.1" id="Layer_1" xmlns="http://www.w3.org/2000/svg" xmlns:xlink="http://www.w3.org/1999/xlink" x="0px" y="0px"
	 viewBox="0 0 224 223" style="enable-background:new 0 0 224 223;" xml:space="preserve">
<style type="text/css">
	.st0{fill:#303F9F;}
	.st1{fill:#FFFFFF;}
</style>
<g>
	<g>
		<circle class="st0" cx="111.7" cy="111.9" r="110.3"/>
	</g>
	<g>
		<path class="st1" d="M91.5,81.2c0,2.2,0,4.4,0,6.5c-0.1,13.5-3,16.4-16.4,16.5c-6.2,0-12.5,0.2-18.7-0.1
			c-7.4-0.3-11.5-4.5-11.7-11.8c-0.2-7.8-0.3-15.6,0-23.4c0.3-7.3,4.2-11.5,11.8-11.6c6.9-0.1,13.7-0.1,20.6,0
			c11,0.1,14.3,3.4,14.4,14.5C91.6,75,91.5,78.1,91.5,81.2z M54.8,67c0,9.7,0,18.5,0,27.2c9.4,0,17.9,0,26.6,0c0-9.4,0-18.2,0-27.2
			C72.3,67,64,67,54.8,67z"/>
		<path class="st1" d="M91.5,143.4c0,23.1,0,23.1-23.6,23.1c-23.3,0-23.3,0-23.3-23.6c0-2.8,0-5.6,0-8.4
			c0.2-11.2,3.8-14.8,15.4-14.9c5.3-0.1,10.6,0,15.9,0c12.3,0.1,15.5,3.3,15.6,15.4C91.5,137.8,91.5,140.6,91.5,143.4z M81.3,156.8
			c0-9,0-18,0-27.2c-9.1,0-17.6,0-26.6,0c0,9.3,0,18.1,0,27.2C63.8,156.8,72.1,156.8,81.3,156.8z"/>
		<path class="st1" d="M142.6,135.4c-9,0-18,0.3-27-0.2c-2.7-0.2-5.2-2.7-7.8-4.2c2.4-1.7,4.8-4.7,7.3-4.7c19-0.4,37.9-0.4,56.9,0
			c2.4,0,4.7,2.7,7.1,4.2c-2.5,1.7-4.9,4.6-7.5,4.7C161.9,135.7,152.2,135.4,142.6,135.4z"/>
		<path class="st1" d="M142.9,72.7c-9.6,0-19.3,0.2-28.9-0.2c-2.1-0.1-4.1-2.5-6.2-3.8c2-1.8,4-5,6.1-5.1c19.6-0.4,39.2-0.4,58.8,0
			c2.1,0,4.2,3.2,6.3,4.9c-2.1,1.4-4.1,3.9-6.2,4C162.8,73,152.9,72.7,142.9,72.7z"/>
		<path class="st1" d="M130.5,97.8c-5.6,0-11.3,0.4-16.8-0.2c-2.1-0.2-4-2.7-6-4.2c1.8-1.6,3.6-4.6,5.5-4.6
			c11.8-0.4,23.7-0.4,35.5,0c1.7,0.1,3.4,2.7,5,4.1c-1.8,1.6-3.5,4.4-5.5,4.6C142.4,98.2,136.4,97.8,130.5,97.8
			C130.5,97.8,130.5,97.8,130.5,97.8z"/>
		<path class="st1" d="M131.5,151.2c5.6,0,11.2-0.3,16.8,0.2c1.9,0.2,3.6,2.4,5.4,3.7c-1.7,1.8-3.3,5.1-5,5.1
			c-11.8,0.5-23.7,0.5-35.5,0c-1.9-0.1-3.6-3.1-5.4-4.8c2-1.4,3.9-3.9,6-4.1C119.6,150.8,125.5,151.2,131.5,151.2z"/>
	</g>
</g>
</svg>
