<?xml version="1.0" encoding="utf-8"?>
<!-- Generator: Adobe Illustrator 27.0.0, SVG Export Plug-In . SVG Version: 6.00 Build 0)  -->
<svg version="1.1" id="Layer_1" xmlns="http://www.w3.org/2000/svg" xmlns:xlink="http://www.w3.org/1999/xlink" x="0px" y="0px"
	 viewBox="0 0 224 223" style="enable-background:new 0 0 224 223;" xml:space="preserve">
<style type="text/css">
	.st0{fill:#0D47A1;}
	.st1{fill:#FFFFFF;}
</style>
<g>
	<circle class="st0" cx="112.7" cy="111.9" r="110.1"/>
</g>
<g>
	<path class="st1" d="M112.4,170.3c-6.8,0-13.6,0-20.5,0c-6.1,0-9.1-3-9.6-9.2c-1.3-17.5,12.3-32.3,30.1-32.6
		c18.3-0.3,32.4,14.3,31.4,32.2c-0.4,6.6-3.5,9.7-10.1,9.6C126.6,170.3,119.5,170.3,112.4,170.3z"/>
	<path class="st1" d="M97.3,108.9c0.6-8.3,8.9-15.5,17-14.7c8,0.8,15.1,8.5,14.7,16.1c-0.4,8.2-8.4,15.7-16.6,15.2
		C104.2,125.1,96.6,116.8,97.3,108.9z"/>
	<path class="st1" d="M61.7,155.5c-1.8,0-3.6,0.4-5.3-0.1c-4-1-8-2.4-11.9-3.7c1.7-4.2,2.3-9.8,5.4-12.1c4.9-3.7,11.4-6.6,17.3-6.9
		c4.9-0.2,12.1,2.6,14.3,6.4c1.8,3.1-0.7,11.4-4,14.1c-3.6,3-10.3,2.3-15.7,3.2C61.8,156.1,61.8,155.8,61.7,155.5z"/>
	<path class="st1" d="M163.3,155.5c-1.8,0-3.6,0-5.3,0c-7.4,0-15.3-8.3-14.2-15.4c0.3-1.7,2.2-3.4,3.8-4.4c10.9-7.3,26.7-3,32.7,8.9
		c3.6,7,1.6,10.5-6.3,10.9C170.4,155.6,166.9,155.5,163.3,155.5z"/>
	<path class="st1" d="M44.2,63.9c12.1,2.3,16.5-4.3,19.4-14.1c3.4,9.3,6.8,17.3,19.8,13.5c-8.9,6.4-12.7,13.1-7.4,23.5
		C67.6,80.2,60,78.9,51.9,87C55.2,77.1,54.9,69.3,44.2,63.9z"/>
	<path class="st1" d="M93.4,63.8c12.7,2.6,16.6-4.4,19.1-15.4c2.9,6.2,4.7,10,6.7,14.2c3.9,0.3,7.9,0.6,15.2,1.1
		c-5.1,4.2-9.9,6.4-11.1,9.8c-1.2,3.5,1.1,8.3,2.3,15c-8.5-8.6-16.1-9.8-24.5-1.4C103.8,77.6,105.7,68.9,93.4,63.8z"/>
	<path class="st1" d="M143.1,64c11.1,1.1,17.2-2.8,18.6-14.5C165.2,59.6,170,66,182,63.7c-9.5,5.7-12.4,12.7-7.8,23
		c-8.2-7.1-15.5-7.7-23.6,0.1C153.5,77.3,153.5,69.4,143.1,64z"/>
	<path class="st1" d="M77.9,117.4c-0.8,7-4.5,11-11.5,11.4c-6.3,0.3-11.9-5.6-11.7-11.9c0.2-6.5,5.9-11.8,12.4-11.2
		C74.1,106.4,77.4,110.7,77.9,117.4z"/>
	<path class="st1" d="M171.5,116.7c-0.1,7.1-6,12.8-12.2,12.1c-6.8-0.7-10.7-4.8-10.8-11.8c-0.1-6.7,5.4-11.9,12-11.3
		C167.5,106.3,170.7,110.7,171.5,116.7z"/>
</g>
</svg>
