<?xml version="1.0" encoding="utf-8"?>
<!-- Generator: Adobe Illustrator 27.0.0, SVG Export Plug-In . SVG Version: 6.00 Build 0)  -->
<svg version="1.1" id="Layer_1" xmlns="http://www.w3.org/2000/svg" xmlns:xlink="http://www.w3.org/1999/xlink" x="0px" y="0px"
	 viewBox="0 0 224 223" style="enable-background:new 0 0 224 223;" xml:space="preserve">
<style type="text/css">
	.st0{fill:#388E3C;}
	.st1{fill:#F8F8F8;}
</style>
<g>
	<circle class="st0" cx="111.7" cy="111.9" r="109.9"/>
</g>
<g>
	<path class="st1" d="M114.5,173.8c-18.2,0-36.3,0.1-54.5,0c-14.4-0.1-19.3-4.8-19.4-18.8c-0.2-20.5-0.1-41,0-61.4
		c0.1-14.1,4.9-18.8,19.3-18.9c36.7-0.1,73.3-0.1,110,0c14.5,0,19.3,4.7,19.4,18.8c0.2,20.5,0.2,41,0,61.4
		c-0.1,14.1-4.9,18.8-19.3,18.9C151.5,173.9,133,173.8,114.5,173.8z M103.3,94.5c-2.6,4-7.3,8-7.8,12.4c-1.1,11.4-0.8,23.1-0.2,34.6
		c0.4,9.2,8,13.5,16,9.1c9.5-5.3,18.7-11.1,27.7-17.3c7.8-5.4,7.7-13.1-0.1-18.6c-8.7-6-17.8-11.4-26.8-16.8
		C110.1,96.8,107.8,96.3,103.3,94.5z"/>
	<path class="st1" d="M56,55.1c-0.3-13.4,4.2-18.9,16.3-19c28.4-0.3,56.9-0.3,85.3,0c12.1,0.1,16.6,5.6,16.3,19
		C134.8,55.1,95.6,55.1,56,55.1z"/>
</g>
</svg>
