<?xml version="1.0" encoding="utf-8"?>
<!-- Generator: Adobe Illustrator 27.0.0, SVG Export Plug-In . SVG Version: 6.00 Build 0)  -->
<svg version="1.1" id="Layer_1" xmlns="http://www.w3.org/2000/svg" xmlns:xlink="http://www.w3.org/1999/xlink" x="0px" y="0px"
	 viewBox="0 0 189.31 197.04" style="enable-background:new 0 0 189.31 197.04;" xml:space="preserve">
<style type="text/css">
	.st0{fill:#0195FE;}
	.st1{fill:#F6D203;}
</style>
<g>
	<path class="st0" d="M129.23,76.66c9.02,2.43,17.14,6,24.38,11.27c21.3,15.49,32.27,36.42,32.62,62.83
		c0.03,1.94-0.13,3.89,0.04,5.82c0.15,1.75-0.48,2.08-2.12,2.08c-24.09-0.05-48.17-0.04-72.26-0.04c-2.37,0-4.99-0.61-7.05,0.2
		c-2.01,0.8-2.43,3.68-3.66,5.59c-11.69,18.2-33.27,27.92-54.01,24.25c-22.14-3.92-39.29-20.33-43.92-42.04
		c-6.41-30.07,14.35-59.73,44.87-64.09c7.28-1.04,14.47-0.68,21.57,1.23c0.73,0.2,1.48,0.59,2.28,0.14
		c5.55-3.14,11.44-5.48,17.75-7.21c-23.26-14.17-23.48-45.06-6.69-60.87c15.92-14.99,41.27-13.86,55.58,2.75
		C153.23,35.52,150.82,62.87,129.23,76.66z M56.05,97.29c-21.18-0.06-38.5,17.1-38.58,38.22c-0.07,21.1,17.22,38.5,38.3,38.53
		c21.04,0.04,38.34-17.14,38.44-38.14C94.31,114.7,77.16,97.35,56.05,97.29z"/>
	<path class="st1" d="M56.11,85.46c27.61,0.08,50.05,22.78,49.92,50.5c-0.13,27.48-22.77,49.94-50.29,49.89
		c-27.57-0.05-50.19-22.8-50.09-50.41C5.75,107.84,28.41,85.39,56.11,85.46z M56.08,165.7c2.26,0,4.54-0.21,6.76,0.05
		c2.74,0.32,3.23-0.83,3.14-3.27c-0.18-4.6,0.13-9.22-0.12-13.81c-0.15-2.64,0.79-3.09,3.14-3c4.6,0.18,9.21-0.08,13.81,0.11
		c2.38,0.09,3.32-0.41,3.19-3.03c-0.23-4.78-0.16-9.59-0.02-14.38c0.06-2.11-0.4-2.95-2.74-2.85c-4.88,0.2-9.78-0.08-14.66,0.12
		c-2.34,0.1-2.76-0.74-2.7-2.83c0.14-4.98-0.01-9.96,0.08-14.95c0.03-1.58-0.2-2.38-2.1-2.33c-5.35,0.13-10.72,0.1-16.07,0.01
		c-1.66-0.03-2.07,0.6-2.04,2.14c0.08,5.08-0.11,10.16,0.09,15.23c0.09,2.34-0.73,2.77-2.84,2.71c-4.98-0.14-9.96,0.01-14.94-0.08
		c-1.6-0.03-2.35,0.22-2.3,2.1c0.13,5.35,0.11,10.72,0.01,16.07c-0.03,1.65,0.54,2.07,2.11,2.04c5.07-0.08,10.16,0.1,15.22-0.09
		c2.34-0.09,2.78,0.74,2.72,2.85c-0.15,4.88,0.04,9.78-0.09,14.66c-0.05,1.9,0.39,2.7,2.45,2.56
		C50.81,165.57,53.45,165.7,56.08,165.7z"/>
</g>
</svg>
