<?xml version="1.0" encoding="utf-8"?>
<!-- Generator: Adobe Illustrator 27.0.0, SVG Export Plug-In . SVG Version: 6.00 Build 0)  -->
<svg version="1.1" id="Layer_1" xmlns="http://www.w3.org/2000/svg" xmlns:xlink="http://www.w3.org/1999/xlink" x="0px" y="0px"
	 viewBox="0 0 224 223" style="enable-background:new 0 0 224 223;" xml:space="preserve">
<style type="text/css">
	.st0{fill:#00897B;}
	.st1{fill:#FFFFFF;}
</style>
<g>
	<circle class="st0" cx="111.7" cy="111.9" r="110.1"/>
</g>
<g>
	<path class="st1" d="M49.2,113.3c0-17.9,0.2-35.7-0.1-53.6c-0.2-9.5,4.3-14.3,13.4-14.4c32.3-0.2,64.5-0.2,96.8,0
		c9.7,0,13.9,5.2,13.8,15.1c-0.3,35.7-0.1,71.4-0.1,107.1c0,11.9-3.4,15.3-15.3,15.3c-31.2,0.1-62.5,0.1-93.7,0
		c-11.2-0.1-14.6-3.6-14.7-14.9C49.1,149.7,49.2,131.5,49.2,113.3z M53.7,77.6c0,31.7,0.1,61.6,0,91.4c0,8.1,4.6,9.5,11.4,9.4
		c30.6-0.2,61.2-0.3,91.8,0.1c9.4,0.1,11.8-3.9,11.7-12.4c-0.3-21.7-0.1-43.3-0.1-65c0-11.2,0-22.5,0-34.7c-14.6,0-28,0.2-41.3-0.1
		c-9.2-0.2-17.4,0.8-24.9,7.2c-3.5,2.9-9.5,3.6-14.4,3.8C76.9,78,66,77.6,53.7,77.6z"/>
	<path class="st1" d="M90.7,84.9c7.2,0,14.5-0.7,21.6,0.3c2.8,0.4,7.2,4.6,7.3,7.3c1.3,21.2-0.2,20.1-17,19.8
		c-10.6-0.2-21.3-0.3-31.9,0c-9.8,0.3-10-6.2-9.7-13.1c0.3-6.6-2-14.7,9.2-14.4C77,85,83.9,84.9,90.7,84.9
		C90.7,84.9,90.7,84.9,90.7,84.9z"/>
	<path class="st1" d="M125.1,146.8c0,2.7,0,5.5,0,8.2c0,16.2-2.4,18.7-18.6,16.4c-3.4-0.5-8.6-5.2-8.9-8.3
		c-1.1-10.8-0.6-21.9-0.4-32.8c0.2-9.3,7.1-9.3,14-9.3c6.9,0,13.5,0.1,13.9,9.4C125.2,135.9,125.1,141.4,125.1,146.8
		C125.1,146.8,125.1,146.8,125.1,146.8z"/>
	<path class="st1" d="M61,146c0-3.1,0-6.2,0-9.2c0-14.7,6.1-19.6,20.4-15.2c2.9,0.9,6.5,5.4,6.7,8.5c0.8,10.9,0.5,21.9,0.3,32.9
		c-0.3,10.7-8.5,8.6-15.1,8.8c-6.6,0.3-12.7-0.2-12.3-9.4C61.2,157,61,151.5,61,146z"/>
	<path class="st1" d="M161.3,146.6c0,3.1,0,6.2,0,9.2c0,15.1-6.5,20.2-21,15.4c-2.8-0.9-5.9-5.7-6.1-8.9
		c-0.8-10.6-0.3-21.2-0.3-31.8c0-9.7,6.9-9.5,13.7-9.4c6.5,0.1,13.8-0.9,13.7,9.1C161.2,135.6,161.2,141.1,161.3,146.6
		C161.2,146.6,161.3,146.6,161.3,146.6z"/>
	<path class="st1" d="M160,88.3c-9.7,0-19.4,0-29.2,0c0-0.7-0.1-1.4-0.1-2.1c9.8,0,19.5,0,29.3,0C160,86.9,160,87.6,160,88.3z"/>
	<path class="st1" d="M130.5,97c9.9,0,19.8,0,29.7,0c0,0.7,0,1.3,0.1,2c-9.9,0-19.8,0-29.7,0C130.5,98.3,130.5,97.7,130.5,97z"/>
	<path class="st1" d="M130.5,108.8c9.9,0,19.8,0,29.8,0c0,0.7,0,1.5,0.1,2.2c-9.9,0-19.8,0-29.7,0
		C130.5,110.3,130.5,109.5,130.5,108.8z"/>
</g>
</svg>
