<?xml version="1.0" encoding="utf-8"?>
<!-- Generator: Adobe Illustrator 27.0.0, SVG Export Plug-In . SVG Version: 6.00 Build 0)  -->
<svg version="1.1" id="Layer_1" xmlns="http://www.w3.org/2000/svg" xmlns:xlink="http://www.w3.org/1999/xlink" x="0px" y="0px"
	 viewBox="0 0 224 223" style="enable-background:new 0 0 224 223;" xml:space="preserve">
<style type="text/css">
	.st0{fill:#0097A7;}
	.st1{fill:#FFFFFF;}
</style>
<g>
	<g>
		<circle class="st0" cx="111.7" cy="111.9" r="108.9"/>
	</g>
	<g>
		<path class="st1" d="M53,73.3c19.4-9.5,37-18.3,54.8-26.8c2-1,5.2-1.2,7.1-0.3c17.9,8.1,35.6,16.6,55.3,25.9
			c-19.6,10.8-37.6,20.7-55.6,30.5c-1.5,0.8-4.1,1.1-5.6,0.3C90.7,93.4,72.5,83.7,53,73.3z"/>
		<path class="st1" d="M106,178c-19.2-10.1-37.2-19.5-55.1-29.1c-1.7-0.9-3.3-3.5-3.4-5.4c-0.4-8.4-0.2-16.8-0.2-27
			c12.1,6.9,23,12.2,32.9,18.9c8.9,6,14.8,4.8,20-4.1c1.1-1.9,2.8-3.5,5.7-6.9C106,143.2,106,160,106,178z"/>
		<path class="st1" d="M116.6,178.2c0-18.8,0-35.2,0-51.6c1.1,0,1.9-0.3,2.2,0c13.6,14.4,13.6,14.4,31.5,4.2
			c7.9-4.5,15.9-9,25.4-14.4c0,9.7,0.2,17.8-0.1,25.9c-0.1,1.6-1.3,4-2.7,4.7C154.7,157.4,136.3,167.4,116.6,178.2z"/>
		<path class="st1" d="M191,96.9c-19.3,11.1-37.8,21.7-57.2,32.8c-4.8-5.9-9.5-11.6-15.1-18.5c20.2-11.1,39.6-21.9,60-33
			C182.7,84.3,186.6,90.2,191,96.9z"/>
		<path class="st1" d="M44.2,79.3c20.6,10.9,39.8,21,60,31.7c-5,6.4-9.6,12.3-14.6,18.7c-19-10.8-37.4-21.4-57.1-32.6
			C36.5,91,40.2,85.5,44.2,79.3z"/>
	</g>
</g>
</svg>
