<?xml version="1.0" encoding="utf-8"?>
<!-- Generator: Adobe Illustrator 27.0.0, SVG Export Plug-In . SVG Version: 6.00 Build 0)  -->
<svg version="1.1" id="Layer_1" xmlns="http://www.w3.org/2000/svg" xmlns:xlink="http://www.w3.org/1999/xlink" x="0px" y="0px"
	 viewBox="0 0 224 223" style="enable-background:new 0 0 224 223;" xml:space="preserve">
<style type="text/css">
	.st0{fill:#A3A3A3;}
</style>
<g>
	<path class="st0" d="M25.4,59.9c-1.1-1.5-2.3-3-3.4-4.6c-1.9-2.9-1.8-6.2,0.6-8.6c7.9-8.1,15.9-16,24-24c2.5-2.5,5.9-2.6,9-0.4
		c4.9,3.5,9.8,7,14.7,10.6c1.1,0.8,2,0.9,3.3,0.3c3.2-1.7,6.5-3,9.9-4.1c1.2-0.4,1.8-1,2-2.3c0.8-5.6,1.8-11.2,2.6-16.8
		c0.4-3,1.6-5.4,4.4-6.9c0.1,0,0.1-0.2,0.1-0.2c-0.1-0.1-0.2-0.2-0.3-0.3c13.1,0,26.2,0,39.3,0c-0.4,0.2-0.2,0.4,0,0.6
		c2.7,1.6,3.6,3.9,4,7c0.8,5.1,1.9,10.1,2.5,15.2c0.3,2.5,1.4,3.5,3.7,4.2c2.9,0.9,5.7,2.2,8.4,3.5c1.3,0.7,2.3,0.6,3.4-0.3
		c4.6-3.4,9.3-6.8,14-10.1c4-2.9,7.1-2.7,10.6,0.8c7.7,7.7,15.3,15.4,22.9,23.1c2.2,2.3,2.6,5.7,0.8,8.4c-2.8,4.1-5.8,8-8.8,12
		c-4.4,0-8.8,0-13.2,0c-1,0-2,0-2.7-0.9c3-4.3,6-8.6,9.1-12.8c0.7-1,0.7-1.6-0.2-2.5c-4.4-4.3-8.8-8.7-13.1-13.1
		c-1.1-1.1-1.7-0.9-2.8-0.1c-4.2,3.1-8.5,6-12.6,9.2c-3.2,2.4-6.2,2.6-9.7,0.6c-5-3-10.4-5.2-16.1-6.7c-3.9-1-5.8-3.4-6.4-7.3
		c-0.7-5.3-1.7-10.5-2.5-15.8c-0.1-0.9-0.3-1.4-1.4-1.4c-6.5,0-13.1,0-19.6,0c-0.6,0-1.1,0-1.2,0.8c-0.2,1.3-0.6,2.6-0.8,3.9
		c-0.7,4.5-1.3,9.1-2,13.6c-0.5,3.2-2.4,5.1-5.4,5.9c-6.1,1.7-11.9,4.1-17.5,7.2c-2.9,1.6-5.7,1.4-8.4-0.6
		c-4.3-3.2-8.8-6.3-13.1-9.5c-1.2-0.9-1.9-0.9-3,0.2c-4.5,4.6-9.1,9.2-13.8,13.7c-0.8,0.8-0.2,1,0.1,1.4c1.6,2.1,3.2,4.3,4.8,6.4
		c-1.9,0-3.8-0.1-5.7,0C32.4,59.6,28.8,59,25.4,59.9z"/>
	<path class="st0" d="M92.1,221.2c0.5-0.7-0.2-0.7-0.5-0.9c-2-1.2-3.1-3-3.4-5.4c-0.9-6-2-11.9-2.8-17.9c-0.2-1.2-0.7-1.9-1.9-2.2
		c-3.5-1.1-6.9-2.5-10.2-4.2c-1.2-0.6-2-0.4-3.1,0.4c-4.7,3.5-9.4,6.9-14.2,10.3c-3.9,2.8-7,2.5-10.4-0.9
		c-7.4-7.4-14.8-14.8-22.2-22.1c-3.5-3.5-3.7-6.5-0.8-10.6c2.4-3.3,4.9-6.6,7.3-10c1.7,0.3,3.5,0.5,5.2,0.5c3.7,0,7.3,0,11,0.1
		c-2.9,4.1-5.8,8.3-8.8,12.3c-0.8,1-0.8,1.6,0.1,2.5c4.2,4.3,8.5,8.6,12.6,13c1.3,1.3,2.1,1.3,3.5,0.3c4.4-3.3,8.8-6.4,13.2-9.6
		c2.5-1.8,5.1-2,7.8-0.5c5.7,3.2,11.7,5.7,18.1,7.5c3.1,0.9,5,2.9,5,6.3c0,0.3,0.1,0.5,0.2,0.8c0.9,5.1,2,10.1,2.4,15.3
		c0.1,1.2,0.6,1.8,1.8,1.8c6.4,0,12.8,0,19.2,0c1,0,1.4-0.3,1.6-1.4c0.8-5.4,1.8-10.8,2.6-16.1c0.5-3.4,2.2-5.8,5.6-6.7
		c6.1-1.6,11.8-4,17.3-7.1c3.1-1.8,5.9-1.5,8.7,0.6c4.3,3.2,8.7,6.2,12.9,9.4c1.2,0.9,1.9,0.9,3-0.2c3.7-3.8,7.5-7.6,11.3-11.3
		c2.7-2.7,2.7-2.7,0.7-5.9c0.8-0.2,1.5-0.4,2.3-0.5c3.5-0.1,7.1,0,10.6,0c0.9,0,1.9,0.1,2.7-0.5c2.4,1.9,3,5.4,1.3,8.2
		c-0.5,0.8-1.2,1.6-1.9,2.3c-7.3,7.3-14.6,14.6-21.9,21.9c-3.7,3.7-6.7,3.9-10.9,0.9c-4.6-3.3-9.2-6.6-13.8-10c-1.1-0.8-2-1-3.3-0.3
		c-3.2,1.7-6.6,3-10,4.1c-1.2,0.4-1.8,1-2,2.4c-0.8,5.6-1.8,11.1-2.6,16.7c-0.4,2.8-1.3,5.2-4,6.6c-0.2,0.1-0.7,0.3-0.2,0.7
		C118.3,221.2,105.2,221.2,92.1,221.2z"/>
	<path class="st0" d="M200.6,167.7c-0.8,0.6-1.7,0.5-2.7,0.5c-3.5,0-7.1,0-10.6,0c-0.8,0-1.5,0.3-2.3,0.5c-3.1-4.2-6.2-8.3-9.1-12.6
		c-1.5-2.2-1.5-4.6-0.2-6.9c3.2-5.9,5.9-12.1,7.7-18.6c0.7-2.6,2.6-4.2,5.3-4.7c2.4-0.5,4.9-0.8,7.4-1.2c3.8-0.7,7.7-0.9,11.5-2.1
		c4.5,0,9.1,0,13.6,0c0,3,0,6,0,9c-0.7-0.5-0.7,0.2-0.9,0.5c-1.2,2-3,3.1-5.4,3.4c-6,0.9-11.9,1.9-17.9,2.8
		c-1.2,0.2-1.9,0.7-2.2,1.8c-1.1,3.5-2.5,6.9-4.2,10.2c-0.6,1.2-0.5,2,0.3,3.1c3.3,4.5,6.4,9,9.6,13.5
		C200.4,167.2,200.5,167.5,200.6,167.7z"/>
	<path class="st0" d="M25.4,59.9c3.5-1,7-0.3,10.5-0.5c1.9-0.1,3.8,0,5.7,0c2,2.7,4,5.3,5.9,8.1c1.5,2.2,1.7,4.7,0.4,7.1
		c-3.3,5.9-5.9,12.1-7.7,18.6c-0.7,2.6-2.5,4.3-5.2,4.7c-6.2,1-12.5,2-18.7,3c-4.6,0-9.2,0-13.8,0c0-2.8,0-5.7,0-8.5
		c0.7,0.5,0.7-0.2,0.9-0.5c1.2-2,3-3.1,5.3-3.4c6-0.9,11.9-2,17.8-2.8c1.3-0.2,2-0.8,2.3-2c1.1-3.5,2.5-6.9,4.2-10.2
		c0.6-1.1,0.5-1.9-0.3-2.9C30.3,67,27.9,63.5,25.4,59.9z"/>
	<path class="st0" d="M46.2,158.1c-3.7,0-7.3-0.1-11-0.1c-1.8,0-3.5-0.2-5.2-0.5c0.7-1.1,1.3-2.4,2.2-3.3c1.6-1.5,1.5-2.9,0.5-4.7
		c-1.6-2.9-2.7-5.9-3.7-9c-0.4-1.4-1.1-2-2.6-2.2c-5.5-0.8-11.1-1.8-16.6-2.6c-3-0.4-5.4-1.6-6.9-4.3c0-0.1-0.2-0.1-0.2-0.1
		c-0.1,0.1-0.2,0.2-0.3,0.3c0-4.1,0-8.3,0-12.4c4.5,0,9.1,0,13.6,0c0,0.5,0.1,1,0.1,1.5c-0.3,1.8,0.5,2.4,2.3,2.6
		c5.4,0.8,10.7,1.7,16,2.6c2.8,0.5,4.9,2,5.7,4.9c1.7,6,4.1,11.8,7.2,17.3C49.5,152.1,49.3,154.4,46.2,158.1z"/>
	<path class="st0" d="M177,66.2c0.7,1,1.7,0.9,2.7,0.9c4.4,0,8.8,0,13.2,0c-0.3,0.5-0.5,1-0.9,1.4c-2.1,2-2.3,4.1-0.9,6.7
		c1.5,2.9,2.7,6,3.8,9.1c0.5,1.4,1.8,1.2,2.6,1.4c5.6,1,11.3,1.7,17,2.6c2.6,0.4,4.9,1.6,6.2,4.1c0,0.1,0.2,0.1,0.2,0.1
		c0.1-0.1,0.2-0.2,0.2-0.3c0,4.3,0,8.5,0,12.8c-4.5,0-9.1,0-13.6,0c0-0.5-0.1-1-0.1-1.5c0.4-2.2-0.6-2.9-2.7-3.1
		c-4.9-0.6-9.8-1.5-14.7-2.2c-3.7-0.5-6-2.4-7-6.1c-1.6-5.9-4-11.5-7-16.8C174,71.8,174.4,69.3,177,66.2z"/>
	<path class="st0" d="M16.1,119.2c-4.5,0-9.1,0-13.6,0c0-6.1,0-12.2,0-18.4c4.6,0,9.2,0,13.8,0C16.2,107,16.1,113.1,16.1,119.2z"/>
	<path class="st0" d="M207.4,105.1c4.5,0,9.1,0,13.6,0c0,5.8,0,11.7,0,17.5c-4.5,0-9.1,0-13.6,0
		C207.4,116.8,207.4,110.9,207.4,105.1z"/>
	<path class="st0" d="M65.6,100c1.3-6.8,4.6-12.8,9-18.1c12.1-14.5,27.7-20,46.2-16.8c7.8,1.3,14.7,5,21,10
		c7.9,6.2,12.7,14.4,15.8,23.7c0.1,0.4,0.2,0.8,0.2,1.2C127.1,100,96.4,100,65.6,100z"/>
	<path class="st0" d="M157.7,124.8c-5.8,18.6-18.2,30.2-37.3,34c-16.9,3.3-31.5-2-43.5-14.1c-5.4-5.5-9.1-12.3-11.1-19.8
		c10.2,0,20.5-0.1,30.7-0.1C116.9,124.8,137.3,124.8,157.7,124.8z"/>
	<path class="st0" d="M157.7,124.8c-20.4,0-40.8-0.1-61.2-0.1c-10.2,0-20.5,0-30.7,0.1c-1.8-5.5-2.1-11.2-1.6-16.9
		c0.2-2.7,0.4-5.4,1.5-7.9c30.7,0,61.4,0,92.2,0c2,7.5,2.4,15,0.3,22.6C157.9,123.3,157.8,124.1,157.7,124.8z"/>
</g>
</svg>
