<?xml version="1.0" encoding="utf-8"?>
<!-- Generator: Adobe Illustrator 27.0.0, SVG Export Plug-In . SVG Version: 6.00 Build 0)  -->
<svg version="1.1" id="Layer_1" xmlns="http://www.w3.org/2000/svg" xmlns:xlink="http://www.w3.org/1999/xlink" x="0px" y="0px"
	 viewBox="0 0 189.31 197.04" style="enable-background:new 0 0 189.31 197.04;" xml:space="preserve">
<style type="text/css">
	.st0{fill:#8380F2;}
	.st1{fill:#F1C24E;}
	.st2{fill:#D3CFCF;}
	.st3{fill:#5350EE;}
	.st4{fill:#6562F0;}
	.st5{fill:#D8D8D8;}
</style>
<g>
	<path class="st0" d="M144.4,128.57c0.86,9.14,2.04,18.27,2.48,27.43c0.34,7.27,3.03,13.68,5.56,20.26c1.2,3.12,2.74,5.62,5.79,7.31
		c2.72,1.51,3.45,3.89,2.67,6.49c-0.64,2.13-3.12,3.9-5.7,4.05c-0.21,0.01-0.41,0.01-0.62,0.01c-41.54-0.01-83.09-0.01-124.63-0.02
		c4.74-1.48,8.79-4.1,12.19-7.66c7.46-7.8,12.37-17.02,15.03-27.47c1.9-7.46,2.6-14.85-1.07-22.03c2.59-0.9,5.24-1.5,7.93-1.98
		c8.29-1.46,16.58-1.59,24.84,0.05c7.71,1.53,15.46,1.93,23.23,0.9c6.36-0.84,12.51-2.75,18.75-4.22
		C135.37,130.64,139.77,129.13,144.4,128.57z M73.6,155.15c0.08-3.32-0.29-6.54-1.58-9.63c-0.37-0.87-0.68-1.55-1.75-1.04
		c-0.88,0.43-1.99,0.62-1.33,2.18c0.93,2.21,1.31,4.58,1.35,6.99c0.12,7.46-1.81,14.45-4.81,21.19c-0.49,1.11-0.68,1.79,0.66,2.42
		c1.3,0.61,1.88,0.16,2.37-0.97C71.43,169.53,73.44,162.56,73.6,155.15z"/>
	<path class="st1" d="M157.06,60.65c-8.71-0.01-16.54-3.1-23.91-7.31c-7.57-4.33-14.3-9.73-18.85-17.4
		c-1.16-1.96-2.06-4.02-2.55-6.26c-0.6-2.73-0.26-5.28,1.17-7.73c2.54-4.32,5.04-8.65,7.48-13.02c2.53-4.52,6.77-5.78,11.45-6.01
		c6.72-0.33,13.06,1.41,19.13,4.11c10.2,4.55,19.15,10.72,25.24,20.38c1.21,1.92,2.14,3.98,2.63,6.22c0.64,2.93,0.34,5.7-1.21,8.33
		c-2.24,3.77-4.62,7.49-6.57,11.41c-2.56,5.12-6.75,7.12-12.16,7.27C158.3,60.66,157.68,60.65,157.06,60.65z"/>
	<path class="st2" d="M56.1,136.95c3.67,7.18,2.97,14.58,1.07,22.03c-2.66,10.44-7.57,19.67-15.03,27.47
		c-3.4,3.55-7.46,6.17-12.19,7.66c-3.24,0.57-6.05-0.78-8.83-2.1c-3.83-1.82-7.66-3.64-11.5-5.45c-4.01-1.89-5.8-5.57-6.54-9.85
		c-1.04-6.01-0.04-11.81,1.59-17.56c2.39-8.4,6.27-16.06,11.92-22.7c3.41-4,7.14-7.79,12.31-9.62c1.14-0.4,2.3-0.74,3.45-1.11
		c3.18-0.21,5.84,1.4,8.65,2.49c0.63,0.67,1.54,0.84,2.31,1.26C47.62,131.88,52.72,132.96,56.1,136.95z"/>
	<path class="st3" d="M41.01,128.2c-2.81-1.1-5.47-2.7-8.65-2.49c-0.5-3-1.99-5.65-3.06-8.45c-2.1-5.5,0.03-9.29,5.85-10.19
		c1.28-0.2,2.54-0.47,3.82-0.71c2.85-0.35,5.7-0.68,8.54-1.06c6.84-0.91,13.63-2.25,20.55-2.54c6.88-0.29,13.61,0.93,20.32,2.25
		c7.47,1.76,15.01,3.25,22.72,2.81c8.94-0.51,17.86-1.35,26.79-2.04c0.54-0.01,1.09-0.01,1.63-0.04c4.04-0.25,7.21,2.67,7.07,6.7
		c-0.07,1.96-0.49,3.92-0.76,5.87c-4.05,0.54-8.1,1.07-12.15,1.61c-8.3,1.12-16.63,2.09-24.9,3.4c-6.84,1.08-13.65,0.83-20.39-0.24
		c-7.77-1.24-15.46-2.37-23.4-1.58c-6.72,0.67-13.21,2.1-19.54,4.34C43.9,126.39,42.06,126.63,41.01,128.2z"/>
	<path class="st0" d="M50.51,58.47c-1.18,0.58-2.45,0.74-3.74,0.79c0.11-0.78-0.12-1.47-0.48-2.16c-1.99-3.81-3.98-7.62-5.93-11.45
		c-0.49-0.97-1.06-0.97-2.11-0.92c-5.29,0.27-10.68,0.93-15.41-2.45c-0.3-0.21-0.78-0.17-1.17-0.25c-3.41-4.66-3.07-9.44-0.41-14.26
		c3.93-7.13,9.95-12.16,16.77-16.26c8.81-5.29,18.21-8.94,28.7-8.58c4.61,0.16,9.01,1.23,11.77,5.54c0.4,0.63,0.87,1.24,0.87,2.04
		c-0.17,2.1,0.26,4.22-0.45,6.3c-1.14,3.35-2.9,6.31-5.31,8.88c-1.19,1.27-1.87,2.39-0.8,4.24c2.05,3.54,3.82,7.24,5.71,10.87
		c0.27,0.53,0.43,1.2,1.22,1.22c-0.78,1.13-1.74,2.09-2.9,2.83c-2.33-4.56-4.67-9.11-6.96-13.68c-0.42-0.84-0.87-0.76-1.43-0.29
		c-2.75,2.36-5.69,4.46-8.83,6.28c-0.93,0.54-0.98,1.13-0.49,2.01c1.06,1.91,2.11,3.83,3.07,5.8c1.22,2.51,2.83,4.84,3.55,7.59
		c-0.86,0.7-1.8,1.23-2.9,1.44c-1.85-4.8-4.57-9.16-6.87-13.74c-0.53-1.05-1.21-0.57-1.88-0.25c-2.73,1.27-5.55,2.27-8.42,3.16
		c-2.85,0.88-2.78,0.85-1.34,3.5C46.47,50.57,48.46,54.53,50.51,58.47z"/>
	<path class="st1" d="M137.88,105.78c-8.93,0.69-17.85,1.53-26.79,2.04c-7.71,0.44-15.25-1.06-22.72-2.81
		c0.91-8.84,3.41-17.13,8.43-24.56c0.61-0.65,1.21-1.3,1.82-1.95c3.12-3.34,6.7-5.17,11.5-4.39c4.31,0.7,8.69,1.02,13.05,1.37
		c4.26,0.34,7.29,2.47,9.5,5.99c2.72,4.31,4.07,9.09,4.74,14.07C137.87,98.93,138.03,102.35,137.88,105.78z"/>
	<path class="st2" d="M96.8,80.45c-5.01,7.43-7.52,15.72-8.43,24.56c-6.71-1.32-13.44-2.53-20.32-2.25
		c-6.91,0.29-13.71,1.62-20.55,2.54c-2.84,0.38-5.69,0.71-8.54,1.06c0.38-10.16,3.74-19.01,11.57-25.8
		c3.75-3.25,8.29-4.73,13.17-5.13c5.64-0.47,11.3-1.04,16.95-1.12c5.24-0.08,10.09,1.57,14.26,4.9
		C95.5,79.67,96.17,80.04,96.8,80.45z"/>
	<path class="st4" d="M41.01,128.2c1.06-1.57,2.89-1.81,4.44-2.36c6.32-2.25,12.81-3.67,19.54-4.34c7.94-0.79,15.63,0.34,23.4,1.58
		c6.74,1.07,13.55,1.32,20.39,0.24c8.27-1.31,16.6-2.29,24.9-3.4c4.05-0.54,8.1-1.08,12.15-1.61c-0.23,3.45-0.78,6.86-1.43,10.26
		c-4.63,0.56-9.03,2.07-13.54,3.14c-6.24,1.47-12.39,3.38-18.75,4.22c-7.77,1.03-15.52,0.62-23.23-0.9
		c-8.26-1.64-16.55-1.51-24.84-0.05c-2.7,0.47-5.35,1.08-7.93,1.98c-3.39-3.99-8.48-5.07-12.79-7.49
		C42.55,129.04,41.64,128.87,41.01,128.2z"/>
	<path class="st0" d="M156.04,103.41c-0.89-0.71-2.11-1.16-2.14-2.58c1.11-2.66,2.8-5.01,4.24-7.49c0.66-1.15,0.97-2.07-0.05-3.09
		c-2.06-2.09-3.26-4.65-4.11-7.41c1.4-3,3.59-4.36,6.89-3.98c9.44,1.1,17.19,5.45,23.28,12.66c3.08,3.65,3.16,6.11,0.93,9.48
		c-3.39,0.54-6.76,0.58-10.1-0.41c-0.63-0.19-1.34-0.14-1.76,0.64c-1.58,2.93-3.2,5.84-4.81,8.75c-1.22-0.05-2.33-0.45-3.32-1.16
		c1.66-2.83,3.28-5.68,4.98-8.49c0.6-0.99,0.28-1.51-0.63-1.93c-2.31-1.07-4.47-2.37-6.52-3.87c-0.88-0.64-1.5-0.62-2.1,0.49
		C159.29,97.87,157.64,100.63,156.04,103.41z"/>
	<path class="st4" d="M79.76,42.02c-0.79-0.03-0.94-0.7-1.22-1.22c-1.89-3.63-3.66-7.33-5.71-10.87c-1.07-1.85-0.39-2.97,0.8-4.24
		c2.41-2.57,4.17-5.53,5.31-8.88c0.71-2.08,0.28-4.2,0.45-6.3c2.68,4.44,5.03,9.06,7.23,13.74c1.18,2.52,0.71,5.22-0.23,7.79
		C84.96,35.89,82.64,39.14,79.76,42.02z"/>
	<path class="st4" d="M21.67,42.03c0.39,0.08,0.87,0.04,1.17,0.25c4.73,3.38,10.12,2.72,15.41,2.45c1.05-0.05,1.62-0.05,2.11,0.92
		c1.95,3.83,3.94,7.64,5.93,11.45c0.36,0.68,0.59,1.38,0.48,2.16c-3.96,0.67-7.9,0.72-11.82-0.29c-3.5-0.9-6.14-2.81-7.75-6.16
		C25.46,49.17,23.52,45.62,21.67,42.03z"/>
	<path class="st4" d="M65.77,52.56c-0.72-2.74-2.33-5.08-3.55-7.59c-0.95-1.97-2.01-3.89-3.07-5.8c-0.49-0.88-0.44-1.47,0.49-2.01
		c3.14-1.81,6.08-3.91,8.83-6.28c0.55-0.48,1.01-0.55,1.43,0.29c2.29,4.58,4.64,9.12,6.96,13.68
		C73.51,47.92,69.78,50.43,65.77,52.56z"/>
	<path class="st4" d="M50.51,58.47c-2.04-3.94-4.04-7.9-6.15-11.8c-1.44-2.65-1.51-2.62,1.34-3.5c2.87-0.89,5.69-1.89,8.42-3.16
		c0.68-0.32,1.36-0.8,1.88,0.25c2.3,4.58,5.03,8.94,6.87,13.74C58.96,56.07,54.85,57.58,50.51,58.47z"/>
	<path class="st4" d="M156.04,103.41c1.6-2.79,3.25-5.54,4.78-8.37c0.6-1.11,1.22-1.14,2.1-0.49c2.05,1.5,4.22,2.8,6.52,3.87
		c0.9,0.42,1.23,0.93,0.63,1.93c-1.7,2.8-3.33,5.65-4.98,8.49C161.73,107.58,158.75,105.73,156.04,103.41z"/>
	<path class="st2" d="M4.28,34.67c0.29-5.73,2.69-10.64,5.93-15.24c2.66-3.78,6.03-6.9,9.3-10.11c0.62-0.61,1.21-1.75,2.19-0.25
		c0.67,1.02,1.6,1.61,0.03,2.92c-5.74,4.8-10.41,10.48-13.01,17.62c-0.91,2.51-1.48,5.1-0.77,7.82c0.44,1.69-1.12,1.59-2.04,1.95
		c-1.22,0.48-1.04-0.54-1.25-1.24C4.33,36.99,4.26,35.85,4.28,34.67z"/>
	<path class="st4" d="M168.4,109.99c1.61-2.92,3.23-5.82,4.81-8.75c0.42-0.78,1.13-0.83,1.76-0.64c3.34,0.98,6.7,0.94,10.1,0.41
		c-1.24,2.19-2.5,4.37-3.7,6.58c-1.07,1.98-2.8,2.97-4.92,3.22C173.73,111.12,171.01,110.98,168.4,109.99z"/>
	<path class="st2" d="M19.04,109.4c-2.04,0.15-1.92-0.97-1.66-2.82c1.01-7.41,3.29-14.39,6.64-21.03c0.95-1.89,2.19-3.63,3.29-5.45
		c0.57-0.94,0.99-1.71,2.36-0.78c1.32,0.89,1.13,1.66,0.41,2.7c-3.97,5.77-6.48,12.19-8.17,18.94c-0.61,2.44-0.95,4.95-1.4,7.43
		C20.37,109.09,20.3,109.82,19.04,109.4z"/>
	<path class="st2" d="M134.95,65.46c0.08,1.72-1.04,2.61-2.66,2c-9.46-3.52-17.7-8.9-24.65-16.25c-1.09-1.15-0.21-1.63,0.44-2.3
		c0.74-0.76,1.31-0.94,2.18,0.02c6.34,6.97,14.1,11.85,22.86,15.2C134.84,64.78,134.92,64.78,134.95,65.46z"/>
	<path class="st2" d="M83.3,60.53c6.44,0.06,12.43,1.7,17.87,5.2c0.73,0.47,1.67,0.94,0.77,2.03c-0.66,0.8-1.05,1.81-2.57,0.86
		c-5.21-3.27-10.95-4.92-17.14-4.72c-2.4,0.08-4.82,0.37-7.02,1.25c-1.99,0.79-2.18-0.52-2.63-1.68c-0.65-1.66,0.93-1.44,1.63-1.64
		C77.16,60.97,80.18,60.4,83.3,60.53z"/>
	<path class="st4" d="M153.98,82.84c0.85,2.76,2.05,5.32,4.11,7.41c1.01,1.03,0.71,1.95,0.05,3.09c-1.43,2.48-3.12,4.83-4.24,7.49
		c-3.48-1.55-5.78-7.66-4.03-10.94C151.14,87.49,152.6,85.19,153.98,82.84z"/>
	<path class="st5" d="M33.07,3.14c0.04,0.6-0.43,0.78-0.83,1.04c-1.37,0.89-2.78,1.74-4.08,2.73c-1.06,0.82-1.52,0.09-1.91-0.62
		c-0.36-0.64-1.54-1.31-0.19-2.17C27.39,3.29,28.68,2.4,30,1.54C31.29,0.71,32.93,1.56,33.07,3.14z"/>
	<path class="st2" d="M106.06,43.5c-0.08,1.18-1.19,1.37-1.91,1.91c-0.84,0.62-1.07-0.33-1.32-0.75c-0.58-0.99-1.03-2.06-1.49-3.12
		c-0.36-0.83-1.17-1.83,0.32-2.32c1.07-0.35,2.31-0.99,2.81,0.94C104.77,41.32,105.51,42.37,106.06,43.5z"/>
	<path class="st2" d="M37.02,70.46c1.04,0.28,1.07,1.36,1.62,2c0.57,0.68-0.2,0.9-0.58,1.22c-0.73,0.6-1.56,1.1-2.2,1.79
		c-0.93,1.01-1.6,1.39-2.76,0.16c-1.22-1.3-0.55-2.05,0.42-2.81C34.62,71.95,35.62,70.91,37.02,70.46z"/>
	<path class="st4" d="M73.6,155.15c-0.16,7.41-2.17,14.38-5.11,21.14c-0.49,1.13-1.07,1.58-2.37,0.97
		c-1.34-0.63-1.15-1.31-0.66-2.42c3.01-6.74,4.94-13.73,4.81-21.19c-0.04-2.41-0.42-4.78-1.35-6.99c-0.65-1.55,0.45-1.75,1.33-2.18
		c1.07-0.52,1.38,0.17,1.75,1.04C73.31,148.61,73.68,151.83,73.6,155.15z"/>
</g>
</svg>
