<?xml version="1.0" encoding="utf-8"?>
<!-- Generator: Adobe Illustrator 27.0.0, SVG Export Plug-In . SVG Version: 6.00 Build 0)  -->
<svg version="1.1" id="Layer_1" xmlns="http://www.w3.org/2000/svg" xmlns:xlink="http://www.w3.org/1999/xlink" x="0px" y="0px"
	 viewBox="0 0 199.4 197.04" style="enable-background:new 0 0 199.4 197.04;" xml:space="preserve">
<style type="text/css">
	.st0{fill:#A3B5BE;}
	.st1{fill:#E2ECEF;}
	.st2{fill:#52C0FE;}
	.st3{fill:#F5B84D;}
	.st4{fill:#4C97E2;}
</style>
<g>
	<path class="st0" d="M21.78,13.77c-4.36-0.02-8.71-0.01-13.07-0.06c-2.2-0.03-4.09-1.42-4.79-3.37C3.2,8.3,3.75,6.34,5.45,4.88
		c0.74-0.64,1.58-1.03,2.58-1.03c0.76,0,1.51-0.02,2.27-0.03c60.23,0,120.45,0.02,180.68-0.06c3.05,0,5.26,0.77,6.63,3.53
		c0,0.88,0,1.77,0,2.65c-1.24,2.82-3.41,3.9-6.46,3.8c-3.9-0.13-7.81,0-11.71,0.01c-0.44-0.01-0.88-0.03-1.32-0.03
		c-51.66,0-103.33,0-154.99,0C22.67,13.73,22.22,13.75,21.78,13.77z"/>
	<path class="st1" d="M21.78,13.77c0.44-0.01,0.88-0.03,1.32-0.03c51.66,0,103.33,0,154.99,0c0.44,0,0.88,0.02,1.32,0.03
		c0,31.01-0.01,62.02-0.01,93.03c0,2.79-0.02,2.82-2.89,2.82c-12.95,0-25.89,0.01-38.84,0.01c-2.53-0.7-5.11-0.25-7.67-0.3
		c-1.34-0.03-2.75-0.41-4.05,0.3c-16.9,0-33.81,0-50.72,0c-0.52-0.51-1.19-0.36-1.79-0.33c-3.31,0.17-6.64-0.42-9.93,0.32
		c-12.99,0-25.98,0-38.97-0.01c-2.71,0-2.76-0.06-2.76-2.75C21.79,75.83,21.79,44.8,21.78,13.77z M70.66,34.3
		c-1.34-0.27-2.64,0.08-3.94,0.29c-12.21,1.92-22.9,13.47-20.48,28.44c2.34,14.49,15.54,23.26,29.93,20.44
		C87.23,81.3,96.21,70.1,95.61,59.22c0.24-3.4-0.58-6.6-1.83-9.72C90.09,40.33,80.01,33.69,70.66,34.3z M136.26,41.43
		c-6.18,0-12.36-0.01-18.54,0c-1.93,0-3.6,0.59-4.66,2.34c-2.25,3.7,0.24,7.76,5,7.79c12.11,0.09,24.21,0.06,36.32,0
		c1.89-0.01,3.8-0.43,4.96-2.23c1.07-1.66,1.21-3.5,0.33-5.22c-0.97-1.91-2.76-2.68-4.87-2.68
		C148.62,41.42,142.44,41.43,136.26,41.43z M136.19,76.68c6.25,0,12.49,0.01,18.74,0c3.17-0.01,5.14-1.81,5.19-4.71
		c0.05-3.01-1.9-5.13-5.02-5.14c-12.62-0.05-25.24-0.06-37.86,0.01c-3.09,0.02-4.99,2.2-4.92,5.25c0.07,2.76,2.09,4.59,5.13,4.6
		C123.7,76.69,129.95,76.68,136.19,76.68z"/>
	<path class="st2" d="M167.66,155.72c6.4,4.15,10.09,10.09,11.36,17.54c0.76,4.44,0.39,8.94,0.32,13.41
		c-0.06,3.5-2.75,6.01-6.26,6.02c-13.06,0.04-26.12,0.04-39.18,0.01c-3.35-0.01-6.05-2.07-6.2-5.4c-0.27-6.21-0.83-12.49,1.34-18.55
		c1.96-5.46,5.27-9.86,10.16-13.03c3.73,5.11,8.61,8,15.08,7.71C160.05,163.16,164.35,160.28,167.66,155.72z"/>
	<path class="st2" d="M61.93,155.71c6.49,4.27,10.21,10.3,11.4,17.93c0.65,4.2,0.35,8.44,0.3,12.66c-0.05,3.94-2.7,6.4-6.67,6.4
		c-12.87,0.02-25.74,0.02-38.61,0c-3.49-0.01-6.23-2.05-6.38-5.42c-0.24-5.64-0.72-11.35,0.85-16.92
		c1.75-6.2,5.29-11.09,10.65-14.66c0.51,0.64,0.99,1.3,1.54,1.91c4.71,5.16,10.46,6.94,17.25,5.21
		C56.42,161.75,59.44,159.08,61.93,155.71z"/>
	<path class="st3" d="M167.66,155.72c-3.31,4.57-7.61,7.44-13.38,7.7c-6.47,0.29-11.35-2.6-15.08-7.71
		c-3.4-6.23-3.48-12.38,0.45-18.42c0.58-0.89,1.28-1.7,1.92-2.55c2.6-2.09,5.43-3.74,8.7-4.55c7.48-0.8,13.58,1.52,17.55,8.14
		C171.27,144.08,170.8,149.95,167.66,155.72z"/>
	<path class="st3" d="M61.93,155.71c-2.49,3.38-5.51,6.04-9.68,7.1c-6.78,1.73-12.54-0.04-17.25-5.21c-0.55-0.6-1.03-1.27-1.54-1.91
		c-4.45-7.81-2.54-15.45,1.98-20.3c4.21-4.52,9.51-5.89,15.49-5.19c3.26,0.95,6.26,2.36,8.73,4.75
		C65.16,141.36,65.83,148.28,61.93,155.71z"/>
	<path class="st0" d="M59.66,134.96c-2.47-2.39-5.47-3.8-8.73-4.75c3.72-6.05,7.44-12.1,11.16-18.15c0.49-0.8,0.96-1.62,1.43-2.44
		c3.29-0.75,6.62-0.15,9.93-0.32c0.6-0.03,1.27-0.18,1.79,0.33c-4.94,8.02-9.88,16.03-14.81,24.05
		C60.17,134.1,59.92,134.53,59.66,134.96z"/>
	<path class="st0" d="M150.27,130.19c-3.27,0.81-6.1,2.46-8.7,4.55c-3.73-5.96-7.48-11.91-11.2-17.88c-1.5-2.4-2.94-4.82-4.42-7.24
		c1.3-0.71,2.71-0.33,4.05-0.3c2.56,0.05,5.14-0.41,7.67,0.3c3.88,6.32,7.76,12.63,11.64,18.95
		C149.65,129.1,149.96,129.65,150.27,130.19z"/>
	<path class="st4" d="M95.61,59.22c0.6,10.88-8.38,22.07-19.43,24.24c-14.39,2.82-27.59-5.94-29.93-20.44
		c-2.41-14.96,8.27-26.51,20.48-28.44c1.3-0.2,2.6-0.56,3.94-0.29c0,7.68,0.04,15.37-0.03,23.05c-0.01,1.52,0.46,1.91,1.93,1.9
		C80.25,59.19,87.93,59.22,95.61,59.22z"/>
	<path class="st2" d="M95.61,59.22c-7.68,0-15.36-0.04-23.05,0.03c-1.47,0.01-1.94-0.38-1.93-1.9c0.07-7.68,0.03-15.37,0.03-23.05
		c9.34-0.61,19.42,6.02,23.11,15.2C95.03,52.63,95.85,55.82,95.61,59.22z"/>
	<path class="st0" d="M136.26,41.43c6.18,0,12.36,0,18.54,0c2.11,0,3.9,0.77,4.87,2.68c0.87,1.72,0.73,3.56-0.33,5.22
		c-1.15,1.8-3.06,2.22-4.96,2.23c-12.11,0.06-24.21,0.09-36.32,0c-4.75-0.04-7.25-4.09-5-7.79c1.06-1.75,2.73-2.33,4.66-2.34
		C123.9,41.42,130.08,41.43,136.26,41.43z"/>
	<path class="st0" d="M136.19,76.68c-6.25,0-12.49,0.01-18.74,0c-3.04-0.01-5.06-1.84-5.13-4.6c-0.07-3.04,1.83-5.23,4.92-5.25
		c12.62-0.06,25.24-0.06,37.86-0.01c3.12,0.01,5.07,2.13,5.02,5.14c-0.05,2.89-2.02,4.7-5.19,4.71
		C148.69,76.68,142.44,76.68,136.19,76.68z"/>
</g>
</svg>
