<?xml version="1.0" encoding="utf-8"?>
<!-- Generator: Adobe Illustrator 27.0.0, SVG Export Plug-In . SVG Version: 6.00 Build 0)  -->
<svg version="1.1" id="Layer_1" xmlns="http://www.w3.org/2000/svg" xmlns:xlink="http://www.w3.org/1999/xlink" x="0px" y="0px"
	 viewBox="0 0 199.4 197.04" style="enable-background:new 0 0 199.4 197.04;" xml:space="preserve">
<style type="text/css">
	.st0{fill:#FFFFFF;}
</style>
<g>
	<path class="st0" d="M100.32,3.6c53.12,0.05,96.18,43.23,96.12,96.39c-0.06,53.1-43.3,96.19-96.43,96.08
		c-53.19-0.1-96.13-43.34-96.02-96.69C4.1,46.56,47.36,3.55,100.32,3.6z M95.21,99.82c-1.22,0.14-2.44,0.32-3.67,0.4
		c-10.13,0.67-19.98,2.67-29.44,6.4c-8.58,3.38-16.43,7.91-22.6,14.96c-9.36,10.68-9.34,24.08,0,34.75
		c5.26,6.01,11.73,10.38,19.02,13.4c26.4,10.95,53.1,11.18,79.88,1.49c8.61-3.12,16.33-7.83,22.45-14.82
		c7.72-8.81,9.23-19.42,4.12-28.96c-2.76-5.16-6.77-9.24-11.47-12.63c-11-7.93-23.54-11.83-36.78-13.78
		c-3.83-0.57-7.71-0.84-12-1.29c24.03-3.67,36.98-24.74,34.25-44.63c-2.64-19.22-19.78-33.86-39.81-33.51
		c-19.76,0.35-36.13,15.72-37.93,35.97C59.54,76.66,72.47,96.09,95.21,99.82z"/>
</g>
</svg>
